<?xml version="1.0" standalone="no"?>
<!DOCTYPE svg PUBLIC "-//W3C//DTD SVG 20010904//EN" "http://www.w3.org/TR/2001/REC-SVG-20010904/DTD/svg10.dtd">
<svg version="1.0" xmlns="http://www.w3.org/2000/svg"
    width="2000.000000pt" height="1500.000000pt" viewBox="0 0 2000.000000 1500.000000"
    preserveAspectRatio="xMidYMid meet">

    <g transform="translate(0.000000,1500.000000) scale(0.100000,-0.100000)"
        fill="blue" stroke="none">
        <path
            d="M9127 9629 c-50 -29 -47 86 -47 -2131 0 -2033 0 -2063 20 -2095 37
-62 106 -52 134 19 14 34 16 257 16 2072 0 1118 -3 2047 -6 2065 -13 63 -70
97 -117 70z" />
        <path
            d="M5040 9035 l0 -595 110 0 110 0 0 240 0 240 1275 0 1275 0 0 -240 0
-240 110 0 110 0 0 595 0 595 -110 0 -110 0 0 -245 0 -245 -1275 0 -1275 0 0
245 0 245 -110 0 -110 0 0 -595z" />
        <path d="M9730 8920 l0 -640 30 0 30 0 0 640 0 640 -30 0 -30 0 0 -640z" />
        <path d="M9860 8920 l0 -640 30 0 30 0 0 640 0 640 -30 0 -30 0 0 -640z" />
        <path d="M9990 8920 l0 -640 30 0 30 0 0 640 0 640 -30 0 -30 0 0 -640z" />
        <path d="M10320 8920 l0 -640 95 0 95 0 0 640 0 640 -95 0 -95 0 0 -640z" />
        <path d="M10580 8920 l0 -640 100 0 100 0 0 640 0 640 -100 0 -100 0 0 -640z" />
        <path d="M10850 8920 l0 -640 95 0 95 0 0 640 0 640 -95 0 -95 0 0 -640z" />
        <path d="M11310 8920 l0 -640 30 0 30 0 0 640 0 640 -30 0 -30 0 0 -640z" />
        <path d="M11440 8920 l0 -640 95 0 95 0 0 640 0 640 -95 0 -95 0 0 -640z" />
        <path d="M11700 8920 l0 -640 30 0 30 0 0 640 0 640 -30 0 -30 0 0 -640z" />
        <path d="M11830 8920 l0 -640 30 0 30 0 0 640 0 640 -30 0 -30 0 0 -640z" />
        <path d="M11970 8920 l0 -640 95 0 95 0 0 640 0 640 -95 0 -95 0 0 -640z" />
        <path d="M12230 8920 l0 -640 95 0 95 0 0 640 0 640 -95 0 -95 0 0 -640z" />
        <path d="M12490 8920 l0 -640 30 0 30 0 0 640 0 640 -30 0 -30 0 0 -640z" />
        <path d="M12620 8920 l0 -640 30 0 30 0 0 640 0 640 -30 0 -30 0 0 -640z" />
        <path d="M12950 8920 l0 -640 30 0 30 0 0 640 0 640 -30 0 -30 0 0 -640z" />
        <path
            d="M4590 9290 l0 -150 -60 0 -60 0 0 -110 0 -110 60 0 60 0 0 -145 0
-145 110 0 110 0 0 405 0 405 -110 0 -110 0 0 -150z" />
        <path
            d="M8260 9035 l0 -405 105 0 105 0 0 145 0 145 65 0 65 0 0 110 0 110
-65 0 -65 0 0 150 0 150 -105 0 -105 0 0 -405z" />
        <path
            d="M5532 8103 c3 -585 3 -588 26 -643 46 -113 140 -207 249 -252 l58
-23 648 -3 c719 -3 719 -3 826 61 102 61 181 180 201 303 6 33 10 301 10 602
l0 542 -110 0 -110 0 0 -551 c0 -385 -3 -563 -11 -590 -16 -52 -64 -108 -113
-130 -38 -17 -80 -19 -669 -19 -598 0 -630 1 -665 19 -48 25 -87 66 -106 113
-14 32 -16 114 -16 598 l0 560 -110 0 -111 0 3 -587z" />
        <path
            d="M6312 8590 c-199 -100 -315 -318 -284 -534 17 -117 65 -211 149 -295
66 -65 157 -121 226 -137 l27 -6 0 115 c0 109 -1 116 -21 122 -36 12 -109 86
-136 139 -34 68 -41 148 -17 222 14 47 31 72 80 122 34 34 69 62 78 62 14 0
16 16 16 115 0 137 3 135 -118 75z" />
        <path
            d="M6660 8507 l0 -115 30 -12 c40 -17 107 -91 133 -148 30 -66 30 -169
-1 -237 -26 -57 -91 -128 -134 -146 l-28 -11 0 -114 c0 -134 -4 -132 109 -77
268 128 372 448 233 716 -62 119 -199 231 -311 253 l-31 7 0 -116z" />
        <path
            d="M10224 8066 c-123 -54 -152 -327 -46 -440 55 -59 137 -72 223 -35
l49 21 0 99 0 99 -70 0 c-63 0 -70 -2 -70 -20 0 -17 7 -20 50 -20 l50 0 0 -60
c0 -53 -3 -61 -26 -77 -35 -22 -111 -22 -146 1 -48 32 -72 97 -71 200 0 72 4
99 20 131 25 47 68 75 115 75 34 0 98 -32 98 -50 0 -14 26 -12 39 3 14 17 -1
38 -49 66 -41 24 -118 27 -166 7z" />
        <path
            d="M11230 8074 c0 -3 34 -70 75 -149 l75 -142 0 -102 0 -101 30 0 30 0
0 99 c0 95 2 103 41 188 23 48 54 116 70 151 l28 62 -27 0 c-25 0 -31 -10 -81
-120 -29 -66 -57 -120 -60 -120 -4 0 -33 54 -66 120 -55 110 -62 120 -87 120
-15 0 -28 -3 -28 -6z" />
        <path
            d="M12350 7830 l0 -250 25 0 25 0 2 188 3 187 50 -97 c27 -54 55 -98 62
-98 6 0 36 44 65 98 l53 97 3 -187 2 -188 25 0 25 0 0 250 c0 243 -1 250 -20
250 -15 0 -34 -28 -84 -127 l-64 -128 -63 128 c-54 107 -67 127 -86 127 l-23
0 0 -250z" />
        <path d="M9730 6785 l0 -645 95 0 95 0 0 645 0 645 -95 0 -95 0 0 -645z" />
        <path d="M9990 6785 l0 -645 95 0 95 0 0 645 0 645 -95 0 -95 0 0 -645z" />
        <path d="M10260 6785 l0 -645 25 0 25 0 0 645 0 645 -25 0 -25 0 0 -645z" />
        <path d="M10390 6785 l0 -645 30 0 30 0 0 645 0 645 -30 0 -30 0 0 -645z" />
        <path d="M10720 6784 l0 -645 28 3 27 3 3 643 2 642 -30 0 -30 0 0 -646z" />
        <path d="M10850 6785 l0 -645 95 0 95 0 0 645 0 645 -95 0 -95 0 0 -645z" />
        <path d="M11110 6785 l0 -645 30 0 30 0 0 645 0 645 -30 0 -30 0 0 -645z" />
        <path d="M11240 6785 l0 -645 30 0 30 0 0 645 0 645 -30 0 -30 0 0 -645z" />
        <path d="M11570 6785 l0 -645 30 0 30 0 0 645 0 645 -30 0 -30 0 0 -645z" />
        <path d="M11700 6785 l0 -645 95 0 95 0 0 645 0 645 -95 0 -95 0 0 -645z" />
        <path d="M11970 6784 l0 -645 28 3 27 3 3 643 2 642 -30 0 -30 0 0 -646z" />
        <path d="M12100 6785 l0 -645 30 0 30 0 0 645 0 645 -30 0 -30 0 0 -645z" />
        <path d="M12230 6785 l0 -645 95 0 95 0 0 645 0 645 -95 0 -95 0 0 -645z" />
        <path d="M12490 6785 l0 -645 30 0 30 0 0 645 0 645 -30 0 -30 0 0 -645z" />
        <path d="M12820 6785 l0 -645 95 0 95 0 0 645 0 645 -95 0 -95 0 0 -645z" />
        <path d="M13080 6785 l0 -645 95 0 95 0 0 645 0 645 -95 0 -95 0 0 -645z" />
        <path d="M13350 6785 l0 -645 30 0 30 0 0 645 0 645 -30 0 -30 0 0 -645z" />
        <path d="M13480 6785 l0 -645 30 0 30 0 0 645 0 645 -30 0 -30 0 0 -645z" />
        <path d="M13810 6785 l0 -645 30 0 30 0 0 645 0 645 -30 0 -30 0 0 -645z" />
        <path d="M13940 6785 l0 -645 95 0 95 0 0 645 0 645 -95 0 -95 0 0 -645z" />
        <path d="M14200 6785 l0 -645 30 0 30 0 0 645 0 645 -30 0 -30 0 0 -645z" />
        <path d="M14330 6785 l0 -645 30 0 30 0 0 645 0 645 -30 0 -30 0 0 -645z" />
        <path d="M14470 6785 l0 -645 25 0 25 0 0 645 0 645 -25 0 -25 0 0 -645z" />
        <path d="M14790 6785 l0 -646 98 3 97 3 3 643 2 642 -100 0 -100 0 0 -645z" />
        <path d="M15060 6785 l0 -645 95 0 95 0 0 645 0 645 -95 0 -95 0 0 -645z" />
        <path d="M15320 6785 l0 -645 95 0 95 0 0 645 0 645 -95 0 -95 0 0 -645z" />
        <path d="M15580 6785 l0 -645 30 0 30 0 0 645 0 645 -30 0 -30 0 0 -645z" />
        <path d="M15720 6785 l0 -645 95 0 95 0 0 645 0 645 -95 0 -95 0 0 -645z" />
        <path d="M16180 6784 l0 -645 28 3 27 3 3 643 2 642 -30 0 -30 0 0 -646z" />
        <path d="M16310 6785 l0 -645 30 0 30 0 0 645 0 645 -30 0 -30 0 0 -645z" />
        <path d="M16440 6785 l0 -645 95 0 95 0 0 645 0 645 -95 0 -95 0 0 -645z" />
        <path d="M16700 6785 l0 -645 30 0 30 0 0 645 0 645 -30 0 -30 0 0 -645z" />
        <path d="M16830 6785 l0 -645 30 0 30 0 0 645 0 645 -30 0 -30 0 0 -645z" />
        <path d="M16970 6785 l0 -645 95 0 95 0 0 645 0 645 -95 0 -95 0 0 -645z" />
        <path d="M17430 6784 l0 -645 28 3 27 3 3 643 2 642 -30 0 -30 0 0 -646z" />
        <path d="M6010 6160 l0 -790 110 0 110 0 0 790 0 790 -110 0 -110 0 0 -790z" />
        <path d="M6900 6160 l0 -790 110 0 110 0 0 790 0 790 -110 0 -110 0 0 -790z" />
        <path d="M6460 5890 l0 -510 110 0 110 0 0 510 0 510 -110 0 -110 0 0 -510z" />
        <path
            d="M10120 5695 c0 -247 1 -255 20 -255 19 0 20 8 22 193 l3 192 53 -102
c29 -57 56 -103 61 -103 5 0 34 46 65 103 l55 102 1 -192 0 -193 25 0 25 0 0
255 c0 238 -1 255 -18 255 -13 0 -34 -34 -77 -121 -33 -66 -63 -123 -67 -125
-4 -3 -36 52 -70 121 -45 89 -68 125 -80 125 -17 0 -18 -18 -18 -255z" />
        <path
            d="M11392 5929 c-38 -100 -172 -476 -172 -482 0 -4 10 -7 23 -7 19 0 26
11 47 73 l25 72 87 3 86 3 24 -73 c22 -66 27 -73 53 -76 23 -3 27 -1 21 15 -4
10 -46 124 -93 253 -47 129 -87 237 -89 239 -2 2 -7 -7 -12 -20z m44 -191 c15
-46 29 -89 32 -95 3 -10 -14 -13 -66 -13 l-71 0 24 68 c31 91 44 122 49 122 2
0 17 -37 32 -82z" />
        <path
            d="M12360 5696 l0 -256 25 0 25 0 2 200 3 200 113 -200 c155 -272 151
-274 154 55 l3 255 -27 0 -28 0 0 -187 c0 -116 -4 -183 -9 -177 -5 5 -54 88
-109 184 -86 152 -102 175 -125 178 l-27 3 0 -255z" />
        <path
            d="M13561 5742 c-41 -114 -83 -229 -93 -255 l-18 -48 27 3 c23 3 29 12
51 76 l24 72 87 0 87 0 24 -75 c22 -70 25 -75 51 -75 l28 0 -23 63 c-13 34
-54 145 -91 247 -37 102 -70 188 -74 192 -3 4 -39 -86 -80 -200z m116 -17 l31
-95 -70 0 c-52 0 -69 3 -66 13 3 6 17 49 33 95 16 45 31 82 35 82 3 0 20 -43
37 -95z" />
        <path
            d="M14710 5939 c-74 -30 -112 -103 -118 -225 -6 -138 29 -219 115 -263
37 -19 124 -13 173 12 l45 22 3 98 3 97 -71 0 c-63 0 -70 -2 -70 -20 0 -17 7
-20 45 -20 l45 0 0 -66 c0 -65 0 -65 -35 -80 -122 -51 -205 32 -205 206 0 69
4 94 23 130 41 84 133 102 195 40 25 -25 32 -27 47 -16 25 18 6 49 -48 75 -46
22 -106 26 -147 10z" />
        <path
            d="M15720 5695 l0 -255 155 0 155 0 0 25 0 25 -130 0 -130 0 0 95 0 95
110 0 110 0 0 25 0 25 -110 0 -110 0 0 85 0 85 130 0 130 0 0 25 0 25 -155 0
-155 0 0 -255z" />
        <path
            d="M16840 5695 l0 -255 25 0 25 0 0 116 0 115 53 -3 52 -3 58 -112 c50
-98 61 -113 82 -113 14 0 25 3 25 8 -1 4 -25 54 -55 112 -30 58 -50 107 -44
108 23 9 67 54 79 82 20 48 8 117 -28 152 -35 35 -83 47 -194 48 l-78 0 0
-255z m231 178 c11 -11 23 -38 26 -60 4 -32 1 -45 -19 -68 -22 -26 -32 -29
-106 -33 l-82 -5 0 98 0 98 81 -5 c63 -4 85 -9 100 -25z" />
    </g>
</svg>